<svg viewBox="0 0 24 24" xmlns="http://www.w3.org/2000/svg">
  <!-- Ambient glow -->
  <circle cx="12" cy="12" r="9" fill="#F5F1E6" opacity="0.15">
    <animate attributeName="opacity" values="0.15;0.25;0.15" dur="4s" repeatCount="indefinite" />
  </circle>

  <!-- Warm flame glow -->
  <circle cx="12" cy="12" r="6" fill="#FDDDC1" opacity="0.2">
    <animate attributeName="opacity" values="0.2;0.3;0.2" dur="3.5s" repeatCount="indefinite" />
  </circle>

  <!-- Lamp base -->
  <path d="M10 16h4" stroke="#8C8468" stroke-width="1.5" stroke-linecap="round"/>
  <path d="M9 17h6" stroke="#8C8468" stroke-width="1.5" stroke-linecap="round"/>

  <!-- Glass dome -->
  <path d="M9 16c0 0-2-2-2-4c0-2 2-4 5-4c3 0 5 2 5 4c0 2-2 4-2 4"
        fill="none" stroke="#BFB193" stroke-width="1.5" opacity="0.7"/>

  <!-- Candle base -->
  <path d="M11 14h2v1.5h-2z" fill="#F5F1E6" stroke="#BFB193" stroke-width="0.5"/>
  <path d="M11.25 15.5h1.5" stroke="#BFB193" stroke-width="0.75" opacity="0.5"/>

  <!-- Candle wick -->
  <line x1="12" y1="14" x2="12" y2="13.5" stroke="#8C8468" stroke-width="0.5"/>

  <!-- Outer flame -->
  <path d="M12 13.5C14 13.5 14.5 12 14 10.5C13.5 9 12.5 8 12 7C11.5 8 10.5 9 10 10.5C9.5 12 10 13.5 12 13.5Z"
        fill="#FFA07A" opacity="0.9">
    <animate attributeName="d"
             values="M12 13.5C14 13.5 14.5 12 14 10.5C13.5 9 12.5 8 12 7C11.5 8 10.5 9 10 10.5C9.5 12 10 13.5 12 13.5Z;
                     M12 13.5C14 13.5 14.5 12 14.2 10.5C13.7 9 12.5 8 12 7.2C11.5 8 10.3 9 9.8 10.5C9.5 12 10 13.5 12 13.5Z;
                     M12 13.5C14 13.5 14.5 12 14 10.5C13.5 9 12.5 8 12 7C11.5 8 10.5 9 10 10.5C9.5 12 10 13.5 12 13.5Z"
             dur="2.5s" repeatCount="indefinite" />
  </path>

  <!-- Middle flame -->
  <path d="M12 13.2C13.5 13.2 14 12 13.5 10.8C13 9.6 12.3 8.8 12 8C11.7 8.8 11 9.6 10.5 10.8C10 12 10.5 13.2 12 13.2Z"
        fill="#FFD700" opacity="0.9">
    <animate attributeName="d"
             values="M12 13.2C13.5 13.2 14 12 13.5 10.8C13 9.6 12.3 8.8 12 8C11.7 8.8 11 9.6 10.5 10.8C10 12 10.5 13.2 12 13.2Z;
                     M12 13.2C13.5 13.2 14 12 13.7 10.8C13.2 9.6 12.3 8.8 12 8.2C11.7 8.8 11.2 9.6 10.7 10.8C10.2 12 10.5 13.2 12 13.2Z;
                     M12 13.2C13.5 13.2 14 12 13.5 10.8C13 9.6 12.3 8.8 12 8C11.7 8.8 11 9.6 10.5 10.8C10 12 10.5 13.2 12 13.2Z"
             dur="2s" repeatCount="indefinite" />
  </path>

  <!-- Core flame -->
  <path d="M12 12.8C13 12.8 13.2 12 13 11.2C12.8 10.4 12.2 9.8 12 9.2C11.8 9.8 11.2 10.4 11 11.2C10.8 12 11 12.8 12 12.8Z"
        fill="#FFFAF0" opacity="0.9">
    <animate attributeName="d"
             values="M12 12.8C13 12.8 13.2 12 13 11.2C12.8 10.4 12.2 9.8 12 9.2C11.8 9.8 11.2 10.4 11 11.2C10.8 12 11 12.8 12 12.8Z;
                     M12 12.8C13 12.8 13.2 12 13.1 11.2C12.9 10.4 12.2 9.8 12 9.3C11.8 9.8 11.1 10.4 10.9 11.2C10.8 12 11 12.8 12 12.8Z;
                     M12 12.8C13 12.8 13.2 12 13 11.2C12.8 10.4 12.2 9.8 12 9.2C11.8 9.8 11.2 10.4 11 11.2C10.8 12 11 12.8 12 12.8Z"
             dur="1.5s" repeatCount="indefinite" />
  </path>

  <!-- Rising heat particles -->
  <g opacity="0.6">
    <circle cx="11.5" cy="9" r="0.15" fill="#FFA07A">
      <animate attributeName="cy" values="9;7;9" dur="3s" repeatCount="indefinite" />
      <animate attributeName="opacity" values="0.6;0;0.6" dur="3s" repeatCount="indefinite" />
    </circle>
    <circle cx="12.5" cy="8" r="0.15" fill="#FFA07A">
      <animate attributeName="cy" values="8;6;8" dur="3.3s" repeatCount="indefinite" />
      <animate attributeName="opacity" values="0.6;0;0.6" dur="3.3s" repeatCount="indefinite" />
    </circle>
  </g>

  <!-- Flickering light cast -->
  <g opacity="0.3">
    <path d="M16.5 12h2M5.5 12h2" stroke="#FFA07A" stroke-width="1" stroke-linecap="round">
      <animate attributeName="opacity" values="0.2;0.4;0.2" dur="2s" repeatCount="indefinite" />
    </path>
  </g>
</svg>
