<svg viewBox="0 0 24 24" xmlns="http://www.w3.org/2000/svg">
  <!-- Magical aura -->
  <circle cx="12" cy="12" r="10" fill="#89A18E" opacity="0.1">
    <animate attributeName="opacity" values="0.1;0.2;0.1" dur="4s" repeatCount="indefinite" />
  </circle>

  <!-- Mystical stem -->
  <path d="M12 21V14"
        stroke="#526A56" stroke-width="1.5" stroke-linecap="round"
        opacity="0.8">
    <animate attributeName="opacity" values="0.8;1;0.8" dur="3s" repeatCount="indefinite" />
  </path>

  <!-- Ethereal leaves -->
  <path d="M12 14C12 14 7 14 5 10C3 6 4 3 4 3C4 3 8 4 10 8C12 12 12 14 12 14Z"
        fill="#89A18E" stroke="#526A56" stroke-width="1.5"
        opacity="0.9">
    <animate attributeName="d"
             values="M12 14C12 14 7 14 5 10C3 6 4 3 4 3C4 3 8 4 10 8C12 12 12 14 12 14;
                     M12 14C12 14 7 13 4 10C1 7 3 3 3 3C3 3 8 5 11 8C14 11 12 14 12 14;
                     M12 14C12 14 7 14 5 10C3 6 4 3 4 3C4 3 8 4 10 8C12 12 12 14 12 14"
             dur="6s" repeatCount="indefinite" />
  </path>
  <path d="M12 14C12 14 17 14 19 10C21 6 20 3 20 3C20 3 16 4 14 8C12 12 12 14 12 14Z"
        fill="#A7B9AB" stroke="#526A56" stroke-width="1.5"
        opacity="0.9">
    <animate attributeName="d"
             values="M12 14C12 14 17 14 19 10C21 6 20 3 20 3C20 3 16 4 14 8C12 12 12 14 12 14;
                     M12 14C12 14 17 13 21 10C24 7 21 3 21 3C21 3 16 5 13 8C10 11 12 14 12 14;
                     M12 14C12 14 17 14 19 10C21 6 20 3 20 3C20 3 16 4 14 8C12 12 12 14 12 14"
             dur="7s" repeatCount="indefinite" />
  </path>

  <!-- Floating spirit particles -->
  <g opacity="0.8">
    <circle cx="8" cy="8" r="0.3" fill="#F5F1E6">
      <animate attributeName="cy" values="8;7;8" dur="3s" repeatCount="indefinite" />
      <animate attributeName="opacity" values="1;0;1" dur="3s" repeatCount="indefinite" />
    </circle>
    <circle cx="16" cy="9" r="0.3" fill="#F5F1E6">
      <animate attributeName="cy" values="9;8;9" dur="4s" repeatCount="indefinite" />
      <animate attributeName="opacity" values="1;0;1" dur="4s" repeatCount="indefinite" />
    </circle>
    <circle cx="12" cy="6" r="0.3" fill="#F5F1E6">
      <animate attributeName="cy" values="6;5;6" dur="5s" repeatCount="indefinite" />
      <animate attributeName="opacity" values="1;0;1" dur="5s" repeatCount="indefinite" />
    </circle>
  </g>
</svg>
