<svg viewBox="0 0 24 24" xmlns="http://www.w3.org/2000/svg">
  <!-- Background aura -->
  <circle cx="12" cy="12" r="9" fill="#EBE7F1" opacity="0.15">
    <animate attributeName="opacity" values="0.15;0.25;0.15" dur="3s" repeatCount="indefinite" />
  </circle>

  <!-- Crystal energy field -->
  <path d="M12 7C15 7 18 12 15 17C12 15 9 15 9 17C6 12 9 7 12 7Z"
        fill="#F6F4F8" opacity="0.1" stroke="#A794C7" stroke-width="0.5">
    <animate attributeName="opacity" values="0.1;0.2;0.1" dur="4s" repeatCount="indefinite" />
  </path>

  <!-- Central crystal -->
  <path d="M12 6L15 10L12 18L9 10L12 6Z"
        fill="#BEB0D6" stroke="#8F77B7" stroke-width="1.5">
    <animate attributeName="opacity" values="0.9;1;0.9" dur="3s" repeatCount="indefinite" />
  </path>

  <!-- Side crystals -->
  <path d="M8 8L10 11L8 16L6 11L8 8Z"
        fill="#A794C7" stroke="#775D9F" stroke-width="1.5"
        transform="rotate(-15 8 12)">
    <animate attributeName="opacity" values="0.8;0.95;0.8" dur="4s" repeatCount="indefinite" />
  </path>

  <path d="M16 8L18 11L16 16L14 11L16 8Z"
        fill="#A794C7" stroke="#775D9F" stroke-width="1.5"
        transform="rotate(15 16 12)">
    <animate attributeName="opacity" values="0.8;0.95;0.8" dur="4s" repeatCount="indefinite" />
  </path>

  <!-- Crystal facets -->
  <path d="M12 8L13.5 10M12 8L10.5 10"
        stroke="#5F4687" stroke-width="0.5" opacity="0.6"/>
  <path d="M8 10L9 11M16 10L15 11"
        stroke="#5F4687" stroke-width="0.5" opacity="0.6"/>

  <!-- Mystical runes -->
  <g opacity="0.7">
    <path d="M11 9L13 9M10 12L14 12M11 15L13 15"
          stroke="#48336E" stroke-width="0.5" stroke-linecap="round">
      <animate attributeName="opacity" values="0.7;1;0.7" dur="2s" repeatCount="indefinite" />
    </path>
  </g>

  <!-- Floating light particles -->
  <g opacity="0.8">
    <circle cx="12" cy="8" r="0.2" fill="#F6F4F8">
      <animate attributeName="cy" values="8;7;8" dur="2s" repeatCount="indefinite" />
      <animate attributeName="opacity" values="1;0;1" dur="2s" repeatCount="indefinite" />
    </circle>
    <circle cx="14" cy="10" r="0.2" fill="#F6F4F8">
      <animate attributeName="cy" values="10;9;10" dur="3s" repeatCount="indefinite" />
      <animate attributeName="opacity" values="1;0;1" dur="3s" repeatCount="indefinite" />
    </circle>
    <circle cx="10" cy="10" r="0.2" fill="#F6F4F8">
      <animate attributeName="cy" values="10;9;10" dur="2.5s" repeatCount="indefinite" />
      <animate attributeName="opacity" values="1;0;1" dur="2.5s" repeatCount="indefinite" />
    </circle>
  </g>
</svg>
